<svg width="280" height="100" viewBox="0 0 280 100" fill="none" xmlns="http://www.w3.org/2000/svg">
  <defs>
    <linearGradient id="grad1" x1="0" y1="0" x2="1" y2="1">
      <stop offset="0%" stop-color="#1FA1BC" />
      <stop offset="100%" stop-color="#0F4EB8" />
    </linearGradient>
    <linearGradient id="grad2" x1="0" y1="0" x2="1" y2="1">
      <stop offset="0%" stop-color="#7BC21E" />
      <stop offset="100%" stop-color="#1FA1BC" />
    </linearGradient>
  </defs>
  <rect x="0" y="0" width="280" height="100" rx="20" fill="#ffffff" />
  <path d="M40 16C21 16 8 29 8 48C8 67 21 84 40 84H68C87 84 100 71 100 52C100 33 87 16 68 16H40Z" fill="url(#grad2)" />
  <path d="M52 24C38 24 28 34 28 48C28 62 38 72 52 72H80C94 72 104 62 104 48C104 34 94 24 80 24H52Z" fill="#ffffff" opacity="0.15" />
  <path d="M64 24H100C117 24 132 36 132 53C132 70 117 84 100 84H64V24Z" fill="url(#grad1)" opacity="0.92" />
  <path d="M34 48C34 38 42 30 52 30H84" stroke="#ffffff" stroke-width="7" stroke-linecap="round" />
  <path d="M65 27C72 27 78 33 78 40C78 47 72 53 65 53" stroke="#ffffff" stroke-width="6" stroke-linecap="round" />
  <text x="152" y="60" fill="#0F4EB8" font-family="Inter, sans-serif" font-size="30" font-weight="800">GENESIS</text>
</svg>
